PathFileType	4	(X/Y/Z)	 s04c0402.trc
DataRate	CameraRate	NumFrames	NumMarkers	Units	OrigDataRate	OrigDataStartFrame	OrigNumFrames
200	200	4	50	mm	200	501	2000
Frame#	Time	racr			lacr			c7			jug			rlel			rdr			llel			ldr			s2			lic			ric			lasi			rasi			rpsi			lpsi			rgt			lgt			rth1			rth2			rth3			rth4			rlfc			rmfc			rsh1			rsh2			rsh3			rsh4			rlmal			rmmal			rcal			rtoe			rmt5			lth1			lth2			lth4			lth3			llfc			lmfc			lsh1			lsh2			lsh3			lsh4			llmal			lmmal			lcal			ltoe			lmt5			SBIKE			LBIKE			RBIKE			
		X1	Y1	Z1	X2	Y2	Z2	X3	Y3	Z3	X4	Y4	Z4	X5	Y5	Z5	X6	Y6	Z6	X7	Y7	Z7	X8	Y8	Z8	X9	Y9	Z9	X10	Y10	Z10	X11	Y11	Z11	X12	Y12	Z12	X13	Y13	Z13	X14	Y14	Z14	X15	Y15	Z15	X16	Y16	Z16	X17	Y17	Z17	X18	Y18	Z18	X19	Y19	Z19	X20	Y20	Z20	X21	Y21	Z21	X22	Y22	Z22	X23	Y23	Z23	X24	Y24	Z24	X25	Y25	Z25	X26	Y26	Z26	X27	Y27	Z27	X28	Y28	Z28	X29	Y29	Z29	X30	Y30	Z30	X31	Y31	Z31	X32	Y32	Z32	X33	Y33	Z33	X34	Y34	Z34	X35	Y35	Z35	X36	Y36	Z36	X37	Y37	Z37	X38	Y38	Z38	X39	Y39	Z39	X40	Y40	Z40	X41	Y41	Z41	X42	Y42	Z42	X43	Y43	Z43	X44	Y44	Z44	X45	Y45	Z45	X46	Y46	Z46	X47	Y47	Z47	X48	Y48	Z48	X49	Y49	Z49	X50	Y50	Z50	
501	2.5050	768.557017	1429.154194	-131.143103	824.314182	1379.448744	-437.976071	773.629755	1489.797198	-304.614754	751.457852	1339.728795	-291.527959	573.067551	1193.007305	3.563428	693.307838	942.459067	-64.818384	606.395695	1183.391612	-554.989772	701.973646	944.747076	-451.274257	198.585587	1302.109796	-275.940539	336.721196	1301.039277	-439.163367	363.913224	1267.117695	-120.697684	378.024016	1246.899242	-403.413689	391.594970	1209.891653	-173.498825	241.911805	1332.853680	-231.678781	231.491898	1345.607485	-301.815337	290.186705	1209.822885	-111.657374	305.118813	1221.786088	-469.484114	298.519336	1051.380639	-87.040254	314.697065	964.784645	-92.338725	288.869743	883.219048	-95.041541	348.883007	963.836688	-107.568205	281.796521	735.570631	-121.118252	261.444698	713.902971	-234.352720	230.755140	621.007670	-92.637766	231.854464	530.386146	-103.408541	187.270815	456.836523	-109.954157	264.870642	524.787672	-123.472441	160.968550	303.687235	-113.526321	189.887664	305.871432	-194.907760	99.262725	318.341371	-155.670987	323.858117	112.453668	-151.742977	256.080520	135.367932	-97.592002	360.057182	1147.103590	-473.915941	435.725108	1104.452550	-470.702116	459.812092	1129.535533	-458.033069	481.695093	1028.506571	-471.219616	571.771641	900.344618	-440.836423	590.261094	873.411671	-327.165993	499.274705	814.944383	-462.855859	447.914021	746.770814	-443.250648	366.982842	709.091127	-442.800566	466.753589	728.075783	-414.801594	249.873788	622.429538	-439.028836	245.185862	627.286844	-348.395215	166.013189	646.383151	-398.275456	410.307861	468.798681	-396.534524	333.690260	478.393465	-461.258338	-177.239703	936.831261	-279.786351	-3.289701	85.717168	-484.574751	-15.016237	80.659741	-84.231924	
502	2.5100	768.654346	1428.192811	-132.254766	824.866772	1378.014457	-438.953145	775.089758	1488.918477	-305.643298	751.943026	1338.668793	-292.539623	572.969289	1192.931656	2.458491	693.561344	942.443754	-64.897420	606.568635	1182.901729	-555.800789	701.904832	944.613010	-451.010560	198.980833	1304.593064	-276.425021	336.543467	1302.327916	-439.948111	364.405469	1268.464318	-121.452036	377.574115	1248.104037	-404.221771	391.431795	1211.051844	-174.556720	242.584791	1334.514341	-232.224256	232.165403	1348.039026	-302.668500	290.643599	1211.523336	-111.951139	304.428232	1223.252803	-469.899489	299.695023	1052.675203	-88.545973	316.555546	966.081900	-93.638925	291.373281	884.344901	-95.217798	350.450932	965.420046	-109.323481	284.434171	736.468270	-121.569098	263.059160	715.143369	-234.682909	231.647526	622.749630	-93.256647	230.749366	532.154494	-104.178291	184.605994	459.486532	-110.477869	263.505920	525.936049	-124.584725	155.215367	306.319348	-113.852531	183.907517	308.075940	-195.890252	93.141516	320.818635	-156.118211	316.784016	113.794737	-152.098225	249.447513	137.403175	-98.040629	358.547832	1148.489374	-474.504896	433.952324	1105.539238	-471.411731	458.261443	1130.516648	-459.080284	479.553182	1029.328639	-471.947892	569.587757	900.670524	-441.918739	588.979028	873.620827	-328.396067	498.010446	814.318404	-463.475939	447.626097	745.220625	-444.267889	367.166156	706.480945	-443.561277	466.861793	726.657160	-415.905283	251.163884	618.674318	-439.314570	246.372527	623.061002	-348.608298	166.544536	640.013458	-398.745732	416.581792	470.812276	-396.696138	339.648187	477.553125	-461.453664	-177.214961	936.849981	-279.959685	-3.298335	85.698539	-484.582345	-15.037299	80.711481	-84.269032	
503	2.5150	768.664410	1426.912799	-133.388968	825.259480	1376.643339	-439.804363	776.505354	1487.918976	-306.610176	752.353499	1337.374644	-293.332877	572.634467	1192.821167	1.528292	693.639038	942.342589	-64.892460	606.757845	1182.324248	-556.510479	701.749732	944.450575	-450.763307	199.377643	1306.856525	-276.986106	336.347366	1303.478368	-440.576657	364.836714	1269.753967	-122.164497	377.139072	1249.219933	-404.794019	391.154985	1211.950489	-175.536645	243.065880	1335.165195	-236.653244	233.150437	1351.317606	-305.807750	291.000881	1213.071285	-112.288436	303.792398	1224.419546	-470.334930	301.147938	1053.892962	-89.872708	318.957308	967.554485	-94.824687	294.698500	885.390430	-95.599429	352.529652	967.004643	-111.293601	287.757218	737.236350	-121.964877	265.400801	716.492518	-234.902805	232.914910	624.437946	-93.893681	229.904496	533.919550	-105.087891	182.123701	462.360310	-111.094687	262.286017	527.054943	-125.808614	149.311976	309.064628	-114.531632	177.851711	310.446702	-197.227154	86.850847	323.444764	-156.872738	310.043414	115.929105	-152.311375	242.755081	139.925557	-98.399867	357.032583	1149.529229	-474.976449	432.195435	1106.170223	-472.187030	456.728988	1131.126217	-460.087035	477.429299	1029.765484	-472.607570	567.436041	900.508314	-443.028902	587.569065	873.431281	-329.692497	496.847252	812.535712	-464.786421	447.375856	742.952550	-445.309178	367.434157	703.174178	-444.323893	466.869957	724.721903	-416.879778	252.293449	614.312536	-439.863392	248.018990	618.486799	-348.545868	167.164174	632.901791	-399.471965	422.686033	472.556722	-396.882769	345.638618	476.295947	-461.713693	-177.201823	936.832648	-280.113423	-3.281006	85.658306	-484.607301	-15.018678	80.712037	-84.281000	
504	2.5200	768.489133	1425.585614	-134.646215	825.510198	1375.339957	-440.648772	777.854027	1486.930747	-307.650212	752.796866	1336.333059	-294.265730	572.142319	1192.623187	0.752250	693.511473	942.228507	-64.851043	606.913348	1181.740843	-557.175099	701.563118	944.309618	-450.542728	199.744127	1309.090465	-277.551362	336.188882	1304.490625	-441.240859	365.155451	1271.102983	-122.867063	376.691177	1250.027865	-405.388481	390.967087	1212.875105	-176.421720	243.442053	1336.945386	-238.032450	233.980453	1353.330507	-306.762621	291.355856	1214.686284	-112.547996	303.177292	1225.337471	-470.636208	303.016813	1054.918875	-90.933092	321.968485	968.850239	-96.116225	298.825514	886.453630	-96.211506	355.020721	968.775138	-113.289711	291.747259	737.945659	-122.469957	268.365570	717.951695	-235.479499	234.576098	626.263187	-94.479594	229.289607	535.866916	-105.953569	179.623475	465.453709	-111.812738	261.206643	528.194448	-127.241214	143.241507	312.203727	-115.461250	171.683967	313.243172	-198.830465	80.314559	326.472819	-158.120873	303.111999	118.251811	-152.402283	235.851786	142.773470	-98.903015	355.555831	1150.267698	-475.362691	430.555670	1106.555998	-472.882210	455.259053	1131.414465	-461.108911	475.311145	1029.890343	-473.291412	565.168552	899.952915	-444.112610	585.984961	872.913319	-331.012273	495.781200	809.902990	-466.447169	447.061186	740.073874	-446.179699	367.823220	699.266609	-445.000773	466.820264	722.289870	-417.649048	253.505076	609.345978	-440.427359	248.963474	613.564845	-349.320787	167.820887	625.469845	-400.146158	428.912259	474.394762	-397.322073	351.418350	474.689017	-462.009394	-177.175453	936.828037	-280.276577	-3.279679	85.626612	-484.627520	-15.024596	80.707082	-84.306927	
